<svg width="17" height="17" viewBox="0 0 17 17" fill="none" xmlns="http://www.w3.org/2000/svg">
<path d="M4.50016 9.51733H12.5002V8.184H4.50016V9.51733ZM4.50016 7.51733H12.5002V6.184H4.50016V7.51733ZM4.50016 5.51733H12.5002V4.184H4.50016V5.51733ZM15.1668 14.8507L12.5002 12.184H3.16683C2.80016 12.184 2.48627 12.0534 2.22516 11.7923C1.96405 11.5312 1.8335 11.2173 1.8335 10.8507V2.85067C1.8335 2.484 1.96405 2.17011 2.22516 1.909C2.48627 1.64789 2.80016 1.51733 3.16683 1.51733H13.8335C14.2002 1.51733 14.5141 1.64789 14.7752 1.909C15.0363 2.17011 15.1668 2.484 15.1668 2.85067V14.8507ZM3.16683 10.8507H13.0668L13.8335 11.6007V2.85067H3.16683V10.8507Z" fill="url(#paint0_linear_21_53)"/>
<defs>
<linearGradient id="paint0_linear_21_53" x1="8.50016" y1="1.51733" x2="8.50016" y2="14.8507" gradientUnits="userSpaceOnUse">
<stop stop-color="#BB18C3"/>
<stop offset="1" stop-color="#1B63A7"/>
</linearGradient>
</defs>
</svg>
