<svg width="17" height="17" viewBox="0 0 17 17" fill="none" xmlns="http://www.w3.org/2000/svg">
<path d="M8.50016 14.184L7.5335 13.3174C6.41127 12.3062 5.4835 11.434 4.75016 10.7007C4.01683 9.96735 3.4335 9.30902 3.00016 8.72568C2.56683 8.14235 2.26405 7.60624 2.09183 7.11735C1.91961 6.62846 1.8335 6.12846 1.8335 5.61735C1.8335 4.57291 2.1835 3.70068 2.8835 3.00068C3.5835 2.30068 4.45572 1.95068 5.50016 1.95068C6.07794 1.95068 6.62794 2.07291 7.15016 2.31735C7.67238 2.56179 8.12238 2.90624 8.50016 3.35068C8.87794 2.90624 9.32794 2.56179 9.85016 2.31735C10.3724 2.07291 10.9224 1.95068 11.5002 1.95068C12.5446 1.95068 13.4168 2.30068 14.1168 3.00068C14.8168 3.70068 15.1668 4.57291 15.1668 5.61735C15.1668 6.12846 15.0807 6.62846 14.9085 7.11735C14.7363 7.60624 14.4335 8.14235 14.0002 8.72568C13.5668 9.30902 12.9835 9.96735 12.2502 10.7007C11.5168 11.434 10.5891 12.3062 9.46683 13.3174L8.50016 14.184ZM8.50016 12.384C9.56683 11.4285 10.4446 10.609 11.1335 9.92568C11.8224 9.24235 12.3668 8.64791 12.7668 8.14235C13.1668 7.6368 13.4446 7.18679 13.6002 6.79235C13.7557 6.39791 13.8335 6.00624 13.8335 5.61735C13.8335 4.95068 13.6113 4.39513 13.1668 3.95068C12.7224 3.50624 12.1668 3.28402 11.5002 3.28402C10.9779 3.28402 10.4946 3.43124 10.0502 3.72568C9.60572 4.02013 9.30016 4.39513 9.1335 4.85068H7.86683C7.70016 4.39513 7.39461 4.02013 6.95016 3.72568C6.50572 3.43124 6.02238 3.28402 5.50016 3.28402C4.8335 3.28402 4.27794 3.50624 3.8335 3.95068C3.38905 4.39513 3.16683 4.95068 3.16683 5.61735C3.16683 6.00624 3.24461 6.39791 3.40016 6.79235C3.55572 7.18679 3.8335 7.6368 4.2335 8.14235C4.6335 8.64791 5.17794 9.24235 5.86683 9.92568C6.55572 10.609 7.4335 11.4285 8.50016 12.384Z" fill="url(#paint0_linear_21_55)"/>
<defs>
<linearGradient id="paint0_linear_21_55" x1="8.50016" y1="1.95068" x2="8.50016" y2="14.184" gradientUnits="userSpaceOnUse">
<stop stop-color="#BB18C3"/>
<stop offset="1" stop-color="#1B63A7"/>
</linearGradient>
</defs>
</svg>
